<?xml version="1.0" encoding="iso-8859-1"?>
<!-- Uploaded to: SVG Repo, www.svgrepo.com, Generator: SVG Repo Mixer Tools -->
<!DOCTYPE svg PUBLIC "-//W3C//DTD SVG 1.1//EN" "http://www.w3.org/Graphics/SVG/1.1/DTD/svg11.dtd">
<svg fill="#000000" version="1.1" id="Capa_1" xmlns="http://www.w3.org/2000/svg" xmlns:xlink="http://www.w3.org/1999/xlink" 
	 width="800px" height="800px" viewBox="0 0 45.835 45.836"
	 xml:space="preserve">
<g>
	<g>
		<path d="M19.993,19.78c-0.141-0.466-0.281-0.92-0.398-1.84h-0.021c-0.118,0.92-0.235,1.385-0.361,1.84l-0.468,1.992h1.739
			L19.993,19.78z"/>
		<path d="M13.23,20.722c0.946,0,1.523-0.479,1.523-1.284c0-0.723-0.492-1.155-1.379-1.155c-0.362,0-0.727,0.035-0.727,0.07v2.323
			C12.648,20.711,12.976,20.722,13.23,20.722z"/>
		<path d="M36.368,7.058h-1.494V5.882c0-1.344-0.64-2.626-1.714-3.429c-1.073-0.805-2.482-1.062-3.773-0.684l-6.104,1.79
			c-0.229-1.341-1.079-2.497-2.331-3.113c-1.478-0.728-3.204-0.555-4.506,0.447c0,0-6.57,5.012-8.732,6.718
			C6.911,8.243,6.671,9.173,6.671,9.855v33.184c0,1.545,1.253,2.797,2.797,2.797h26.899c1.545,0,2.797-1.252,2.797-2.797V9.855
			C39.165,8.31,37.913,7.058,36.368,7.058z M22.781,6.808l7.443-2.18c0.392-0.118,0.814-0.038,1.145,0.208
			c0.327,0.246,0.516,0.636,0.516,1.046v1.176H21.771L22.781,6.808z M20.822,16.944l2.438,7.817h-1.914l-0.607-1.993h-2.252
			l-0.561,1.993h-1.845l2.405-7.817H20.822z M17.148,32.349h11.535c0.823,0,1.489,0.671,1.489,1.493s-0.666,1.494-1.489,1.494
			H17.148c-0.821,0-1.488-0.672-1.488-1.494S16.328,32.349,17.148,32.349z M25.947,24.982c-0.896,0-1.784-0.234-2.229-0.479
			l0.362-1.471c0.479,0.245,1.215,0.49,1.973,0.49c0.816,0,1.25-0.338,1.25-0.853c0-0.491-0.375-0.771-1.318-1.109
			c-1.309-0.456-2.16-1.179-2.16-2.323c0-1.342,1.122-2.369,2.977-2.369c0.887,0,1.541,0.188,2.008,0.397l-0.397,1.435
			c-0.313-0.152-0.874-0.373-1.646-0.373c-0.77,0-1.144,0.35-1.144,0.758c0,0.501,0.442,0.723,1.458,1.109
			c1.391,0.513,2.044,1.237,2.044,2.346C29.124,23.861,28.107,24.982,25.947,24.982z M18.262,3.254
			c0.233-0.181,0.512-0.272,0.795-0.272c0.196,0,0.395,0.044,0.579,0.135c0.45,0.221,0.729,0.671,0.729,1.173L15.17,5.63
			L18.262,3.254z M10.732,17.105c0.919-0.094,1.383-0.164,2.469-0.164c1.098,0,1.912,0.21,2.436,0.63
			c0.503,0.397,0.858,1.051,0.858,1.821s-0.25,1.423-0.718,1.867c-0.605,0.572-1.489,0.828-2.538,0.828
			c-0.234,0-0.591-0.011-0.591-0.035v2.708h-1.916V17.105z M32.878,41.544H12.956c-0.821,0-1.488-0.672-1.488-1.495
			c0-0.821,0.667-1.493,1.488-1.493h19.923c0.822,0,1.489,0.672,1.489,1.493C34.368,40.872,33.701,41.544,32.878,41.544z
			 M31.96,24.982c-0.898,0-1.783-0.234-2.229-0.479l0.361-1.471c0.479,0.245,1.213,0.49,1.973,0.49c0.816,0,1.248-0.338,1.248-0.853
			c0-0.491-0.373-0.771-1.317-1.109c-1.308-0.456-2.159-1.179-2.159-2.323c0-1.342,1.12-2.369,2.977-2.369
			c0.887,0,1.541,0.188,2.008,0.397l-0.398,1.435c-0.312-0.152-0.875-0.373-1.644-0.373c-0.771,0-1.144,0.35-1.144,0.758
			c0,0.501,0.441,0.723,1.457,1.109c1.391,0.513,2.041,1.237,2.041,2.346C35.134,23.861,34.121,24.982,31.96,24.982z"/>
	</g>
</g>
</svg>